<svg version="1.0" xmlns="http://www.w3.org/2000/svg"
 width="264.000000pt" height="36.000000pt" viewBox="0 0 264.000000 36.000000"
 preserveAspectRatio="xMidYMid meet">
<g transform="translate(0.000000,36.000000) scale(0.100000,-0.100000)"
fill="#fff" stroke="none">
<path d="M1364 350 c-73 -23 -101 -105 -54 -155 13 -14 50 -35 82 -46 32 -12
58 -26 58 -31 0 -23 -59 -21 -121 6 -12 5 -22 -3 -37 -29 l-22 -36 32 -19
c120 -73 283 -2 247 107 -11 36 -42 56 -113 77 -52 15 -57 42 -6 38 19 -2 45
-4 58 -5 16 -1 29 8 43 31 l21 32 -36 15 c-48 20 -114 27 -152 15z"/>
<path d="M1689 351 c-74 -24 -119 -87 -119 -167 0 -84 43 -142 123 -166 33
-10 47 -9 86 5 27 9 47 12 49 7 2 -6 24 -10 48 -10 l44 0 0 165 0 165 -40 0
c-26 0 -43 -5 -46 -15 -5 -12 -9 -12 -27 0 -29 18 -86 26 -118 16z m91 -101
c10 -5 23 -23 29 -40 18 -53 -14 -100 -69 -100 -29 0 -70 44 -70 75 0 14 11
37 25 50 25 26 54 31 85 15z"/>
<path d="M2055 346 c-62 -28 -105 -94 -105 -162 0 -114 123 -202 223 -160 22
9 39 11 42 5 4 -5 26 -9 51 -9 l44 0 0 165 0 165 -44 0 c-25 0 -48 -4 -51 -10
-4 -6 -17 -4 -35 5 -36 18 -85 19 -125 1z m123 -119 c15 -12 16 -69 0 -85 -17
-17 -68 -15 -90 5 -23 20 -23 55 0 75 31 28 59 29 90 5z"/>
<path d="M2445 346 c-73 -32 -118 -125 -100 -206 15 -68 96 -130 169 -130 40
0 116 27 116 41 0 5 -12 27 -26 48 -24 36 -27 38 -54 28 -58 -22 -108 32 -82
88 13 29 54 42 87 27 21 -10 26 -7 49 28 14 22 26 44 26 49 0 14 -77 41 -118
41 -20 -1 -51 -7 -67 -14z"/>
<path d="M80 328 c-79 -54 -102 -145 -58 -227 44 -82 138 -111 226 -71 36 16
41 22 33 37 -25 44 -26 44 -57 28 -45 -23 -82 -19 -115 14 -16 16 -29 34 -29
40 0 7 41 11 120 11 l120 0 0 38 c0 86 -67 152 -155 152 -38 0 -61 -6 -85 -22z
m140 -68 c34 -34 24 -40 -61 -40 -84 0 -86 2 -51 43 21 24 86 23 112 -3z"/>
<path d="M370 185 l0 -165 40 0 40 0 0 105 c0 99 2 107 25 130 29 30 58 32 85
5 18 -18 20 -33 20 -130 l0 -110 40 0 40 0 0 105 c0 99 2 107 25 130 29 30 65
32 88 7 14 -15 17 -40 17 -130 l0 -112 41 0 41 0 -4 136 -3 136 -33 29 c-43
39 -117 41 -159 5 l-28 -24 -28 24 c-34 28 -111 33 -143 9 -25 -19 -34 -19
-34 0 0 10 -11 15 -35 15 l-35 0 0 -165z"/>
<path d="M1000 331 c-94 -50 -118 -177 -47 -258 56 -63 126 -79 203 -44 129
59 131 240 3 306 -39 21 -117 19 -159 -4z m142 -80 c68 -61 29 -161 -62 -161
-93 0 -122 130 -39 176 37 21 66 16 101 -15z"/>
</g>
</svg>
